<?xml version="1.0" encoding="utf-8"?>
<!-- Generator: Adobe Illustrator 18.1.1, SVG Export Plug-In . SVG Version: 6.00 Build 0)  -->
<svg version="1.1" id="Layer_1" xmlns="http://www.w3.org/2000/svg" xmlns:xlink="http://www.w3.org/1999/xlink" x="0px" y="0px"
	 viewBox="924.6 723.3 60 60" enable-background="new 924.6 723.3 60 60" xml:space="preserve">
<path fill="#399222" d="M976.2,752.5l0.3-1.8l-1.1-1.3c-4.4,1.6-20.2,7-20.6,5.6c-0.4,1.4-18.1-2.5-21.9-3.3l0.1,0.5l-1.3,1l0.9,2.6
	l-1,1.3l1,2.3l-1,1.2l1.4,2.4l-0.8,1.5l1.7,1.9l-0.5,1.6l1.8,1.6l-0.1,1.7l1.8,1.2l0.1,1.5l1.8,1l0,1.5l2.2,0.8l0,1.6l2.7,0.3
	l0.8,1.7l2.1-0.3l1,1.1l2-0.2l1.1,1.1l2.1-0.5l1.4,1.1l1.9-1.1l1.4,0.5l1.8-1l1.3,0.7l1.7-1.6l1.3,0.7l1.5-2.1l1.5,0.3l1.2-2.2
	l1.6,0l0.8-2.3l1.4-0.6l0.6-1.9l1.3-0.1l0.4-2.7l1.5-0.8l-0.2-2.4l1.2-1l-0.4-2.4l0.9-1.5l-0.5-2.1l0.5-1.8l-0.5-1.8l0.6-1.4
	L976.2,752.5z"/>
<polygon display="none" fill="#149ECB" points="896.9,452.1 890.9,473.5 897.1,498.5 885.4,516.9 890.2,545.5 873.9,558.1 
	876.1,587.4 856.1,596.6 850.8,629.2 833.2,630.7 825.1,653.9 806.7,661.4 796.7,689.6 776,689.3 760.7,716.2 741.2,712.1 
	721.2,737.7 703.6,729.2 680.5,748.6 664,740.1 640.8,752.2 622.3,746.1 596.9,758.9 578.9,746.1 551.5,752.2 536.9,739.1 
	510.8,741.2 497.1,727.4 469.4,730.6 458.6,709.9 423.7,705.6 423.9,686.4 394.3,677 394.5,658.9 370.1,646.7 368.4,627.9 
	344.1,613.7 345.9,593 321.9,573.7 328.2,554.7 305.3,531.9 316.3,513.5 297.5,485 310.7,470.6 298,442.6 311,426.5 299.4,395.1 
	317,383.3 309.5,350.9 328.7,343.1 321.6,314.5 347.2,305.2 354.6,271.9 371.1,271.2 381.2,248.9 397.7,241.9 408.8,222.4 
	427.8,214.5 440.1,190.2 461.7,189.9 478,159.9 500.6,171.2 530.4,145.2 541.5,159.9 568.7,141.9 582.8,154.2 611.3,137.7 
	626.9,154.3 662.8,142.5 668.9,161.7 698.4,158.9 708.2,174.2 740.4,170.3 745.2,192.5 773.2,200.6 778.1,215.8 801.2,222.6 
	808.4,242.5 834.1,253.8 834.7,274.4 853.7,292.4 855.8,309.2 870.7,325.9 873.2,346.5 889.8,366.1 885.5,387.4 898.3,412.5 
	891,429.9 "/>
<path fill="#399222" d="M976.4,747.2l4.1-2.6l-0.2-0.2l0.1-0.1l-2.4-3.1l1.8-2.7l-1.8-2.5l3.2-3.4l-0.8-1.6
	c-4.9,1.8-20.4,8.8-25.5,24.1c0.8,1.4,20.5-5,23.8-6l-0.2-0.1l0.4-0.2L976.4,747.2z"/>
<path fill="#399222" d="M926.8,733.4l-0.7,1.1l2.4,4.2l-1.2,3.4l2.2,2.3l-1.8,3.4l3.3,0.5l-1.2,3.3c0,0,18.2,3.9,23.7,3.9
	c0.3,0,0.5,0,0.7,0c0.4,0,0.7-0.1,0.8-0.3C952.6,746.3,934.7,737.1,926.8,733.4z"/>
<polygon fill="#6CC555" points="984.6,758.6 982.9,759.8 983.9,763.4 981.7,763.7 981.4,766.9 979.6,767.1 978.6,769.7 976.8,769.8 
	975.3,772 973.4,771.8 971.5,773.3 969.4,772.8 966.9,774.3 965.2,772.8 962.3,773.2 961.3,771.7 958.7,771.4 958,769.6 
	955.8,768.6 955.3,766.7 953.5,765.2 953.4,763.3 951.9,761.3 952.2,759.3 951,756.9 952.2,755 951.4,752 953.3,751 953.7,748.5 
	955.3,747.5 955.7,744.7 958.1,744.5 959.9,741 961.8,742.4 964.6,739.5 965.9,741.4 969.7,739.5 969.8,741.5 971.2,740.3 
	973.6,742.8 977.2,743.2 977.1,745 979.6,745.8 979.9,747.8 982.7,749.1 982,751.4 984.5,754.1 983,755.5 "/>
<polygon fill="#6CC555" points="958.8,759.5 957.1,760.8 958.1,764.4 955.9,764.8 955.6,768.1 953.7,768.2 952.7,770.9 950.8,771 
	949.3,773.2 947.4,773 945.5,774.6 943.4,774.1 940.8,775.6 939.1,774.1 936.1,774.4 935.1,772.9 932.4,772.6 931.7,770.8 
	929.5,769.7 929,767.9 927.2,766.3 927,764.4 925.5,762.4 925.9,760.3 924.6,757.8 925.8,755.9 925,752.9 926.9,751.9 927.3,749.2 
	929,748.3 929.3,745.4 931.9,745.3 933.6,741.7 935.5,743.1 938.4,740.1 939.7,742 943.7,740.1 943.7,742.2 945.2,740.9 
	947.6,743.5 951.3,743.9 951.2,745.7 953.7,746.5 954,748.6 956.9,749.9 956.1,752.2 958.8,755 957.2,756.4 "/>
<path fill="#B5E2AA" d="M954.4,762.7c-8.3,0-8.3,6.6-8.3,6.6l9.1,11.8l7.2-12.1C962.4,768.9,962.4,762.7,954.4,762.7z"/>
<path fill="#2B6D1A" d="M980.4,731.1l1.1-2.4l-2.7-1.9l0.7-3.4c0,0-19,8.1-24.5,31.8c0,0,0,0,0,0C960,739.8,975.5,732.9,980.4,731.1
	z"/>
<path fill="#2B6D1A" d="M926.8,733.4c7.9,3.7,25.8,12.9,28.1,21.8c0,0,0,0,0,0c-2.6-14.8-28.8-30.2-28.8-30.2l0.6,3.5l-1.7,2
	L926.8,733.4z"/>
<path fill="#399222" d="M963.7,734.5l-0.8-1.3l-2.5,0.2l-0.5-1.6l-3,1l-1.3-1.4l-2.4,1.4l-1.2-1l-2.3,1.5l-0.9-1.2l-2.5,2.2l-1.9-1
	l-1.4,2.5l-1.7,0c6.3,5.5,12.5,12.4,13.7,19.2c2.1-9.1,6.2-15.9,10.5-20.8L963.7,734.5z"/>
<circle fill="#FFFFFF" cx="943.2" cy="753.5" r="11.4"/>
<circle fill="#FFFFFF" cx="966" cy="753.6" r="11.3"/>
<circle fill="#231F20" cx="945.4" cy="753.6" r="6.6"/>
<circle fill="#231F20" cx="963.1" cy="753.8" r="6.5"/>
</svg>
