<?xml version="1.0" encoding="utf-8"?>
<!-- Generator: Adobe Illustrator 18.1.1, SVG Export Plug-In . SVG Version: 6.00 Build 0)  -->
<svg version="1.1" id="Layer_1" xmlns="http://www.w3.org/2000/svg" xmlns:xlink="http://www.w3.org/1999/xlink" x="0px" y="0px"
	 viewBox="201.1 2.4 59.7 59.5" enable-background="new 201.1 2.4 59.7 59.5" xml:space="preserve">
<path fill="#48B62B" d="M252.5,31.4l0.3-1.8l-1.1-1.3c-4.4,1.5-20.1,7-20.6,5.6c-0.4,1.4-18-2.4-21.8-3.3l0.1,0.5l-1.3,1l0.9,2.6
	l-1,1.3l1,2.3l-1,1.2l1.4,2.3l-0.8,1.5l1.7,1.9l-0.5,1.6l1.8,1.6l-0.1,1.7l1.8,1.2l0.1,1.5l1.8,1l0,1.5l2.2,0.8l0,1.6l2.6,0.3
	l0.8,1.7l2.1-0.3l1,1.1l2-0.2l1.1,1.1l2.1-0.5l1.4,1.1l1.9-1.1l1.4,0.5l1.7-1l1.3,0.7l1.7-1.6l1.3,0.7l1.5-2.1l1.5,0.3l1.2-2.2
	l1.6,0l0.8-2.3l1.4-0.6l0.6-1.9l1.3-0.1l0.4-2.7l1.5-0.8l-0.2-2.4l1.2-1l-0.4-2.3l0.9-1.5l-0.5-2.1l0.5-1.8l-0.4-1.8l0.5-1.4
	L252.5,31.4z"/>
<polygon display="none" fill="#149ECB" points="896.9,452.1 890.9,473.5 897.1,498.5 885.4,516.9 890.2,545.5 873.9,558.1 
	876.1,587.4 856.1,596.6 850.8,629.2 833.2,630.7 825.1,653.9 806.7,661.4 796.7,689.6 776,689.3 760.7,716.2 741.2,712.1 
	721.2,737.7 703.6,729.2 680.5,748.6 664,740.1 640.8,752.2 622.3,746.1 596.9,758.9 578.9,746.1 551.5,752.2 536.9,739.1 
	510.8,741.2 497.1,727.4 469.4,730.6 458.6,709.9 423.7,705.6 423.9,686.4 394.3,677 394.5,658.9 370.1,646.7 368.4,627.9 
	344.1,613.7 345.9,593 321.9,573.7 328.2,554.7 305.3,531.9 316.3,513.5 297.5,485 310.7,470.6 298,442.6 311,426.5 299.4,395.1 
	317,383.3 309.5,350.9 328.7,343.1 321.6,314.5 347.2,305.2 354.6,271.9 371.1,271.2 381.2,248.9 397.7,241.9 408.8,222.4 
	427.8,214.5 440.1,190.2 461.7,189.9 478,159.9 500.6,171.2 530.4,145.2 541.5,159.9 568.7,141.9 582.8,154.2 611.3,137.7 
	626.9,154.3 662.8,142.5 668.9,161.7 698.4,158.9 708.2,174.2 740.4,170.3 745.2,192.5 773.2,200.6 778.1,215.8 801.2,222.6 
	808.4,242.5 834.1,253.8 834.7,274.4 853.7,292.4 855.8,309.2 870.7,325.9 873.2,346.5 889.8,366.1 885.5,387.4 898.3,412.5 
	891,429.9 "/>
<path fill="#399222" d="M252.7,26.1l4.1-2.6l-0.2-0.2l0.1-0.1l-2.4-3.1l1.8-2.6l-1.8-2.4l3.2-3.4l-0.8-1.6
	c-4.9,1.8-20.3,8.7-25.4,24c0.8,1.4,20.4-5,23.7-6l-0.2-0.1l0.4-0.2L252.7,26.1z"/>
<path fill="#399222" d="M203.2,12.4l-0.7,1.1l2.3,4.2l-1.2,3.4l2.1,2.2l-1.8,3.4l3.3,0.5l-1.2,3.3c0,0,18.1,3.8,23.6,3.9
	c0.3,0,0.5,0,0.7,0c0.4,0,0.7-0.1,0.8-0.3C228.9,25.2,211.1,16.1,203.2,12.4z"/>
<polygon fill="#6CC555" points="260.8,37.5 259.1,38.7 260.1,42.3 258,42.6 257.6,45.8 255.8,46 254.8,48.5 253,48.7 251.5,50.8 
	249.6,50.6 247.8,52.2 245.7,51.7 243.2,53.2 241.5,51.7 238.7,52 237.6,50.5 235,50.3 234.3,48.5 232.2,47.4 231.7,45.6 
	229.9,44.1 229.7,42.2 228.3,40.3 228.6,38.2 227.4,35.8 228.5,33.9 227.7,31 229.7,30 230,27.4 231.7,26.5 232,23.6 234.5,23.5 
	236.2,20 238.1,21.4 240.9,18.5 242.2,20.4 246,18.5 246.1,20.5 247.5,19.3 249.8,21.8 253.5,22.2 253.4,23.9 255.8,24.8 
	256.1,26.7 258.9,28.1 258.2,30.3 260.8,33 259.2,34.4 "/>
<polygon fill="#6CC555" points="235.2,38.5 233.4,39.7 234.5,43.3 232.2,43.7 231.9,46.9 230.1,47.1 229.1,49.7 227.2,49.9 
	225.7,52.1 223.8,51.8 221.9,53.5 219.8,53 217.2,54.4 215.5,52.9 212.6,53.3 211.5,51.8 208.9,51.5 208.2,49.7 206,48.6 
	205.4,46.8 203.6,45.2 203.5,43.2 202,41.3 202.3,39.2 201.1,36.7 202.3,34.8 201.4,31.8 203.4,30.8 203.8,28.2 205.4,27.3 
	205.8,24.3 208.3,24.2 210.1,20.7 212,22 214.8,19.1 216.1,21 220.1,19.1 220.1,21.1 221.6,19.9 224,22.4 227.7,22.9 227.6,24.7 
	230.1,25.5 230.4,27.5 233.2,28.9 232.5,31.2 235.1,33.9 233.5,35.3 "/>
<path fill="#B5E2AA" d="M230.8,41.6c-8.6,0-8.6,6.5-8.6,6.5l9.4,11.7l7.4-12.1C239,47.8,239,41.6,230.8,41.6z"/>
<circle fill="#FFFFFF" cx="220.9" cy="32.8" r="10.4"/>
<circle fill="#FFFFFF" cx="241.8" cy="33.4" r="10.5"/>
<circle fill="#231F20" cx="222.1" cy="32.9" r="6.6"/>
<circle fill="#231F20" cx="239.6" cy="33" r="6.5"/>
<path fill="#2B6D1A" d="M256.6,10.1l1.1-2.4L255,5.8l0.7-3.4c0,0-19,8.1-24.4,31.7c0,0,0,0,0,0C236.3,18.8,251.7,11.9,256.6,10.1z"
	/>
<path fill="#2B6D1A" d="M203.2,12.4c7.9,3.6,25.7,12.8,28,21.7c0,0,0,0,0,0C228.6,19.3,202.6,4,202.6,4l0.6,3.5l-1.6,2L203.2,12.4z"
	/>
<path fill="#48B62B" d="M240,13.5l-0.8-1.3l-2.5,0.2l-0.5-1.6l-3,1l-1.3-1.4l-2.4,1.4l-1.2-1l-2.3,1.5l-0.9-1.2l-2.5,2.2l-1.9-1
	l-1.4,2.5l-1.7,0c6.3,5.5,12.5,12.4,13.7,19.2c2.1-9,6.2-15.8,10.4-20.7L240,13.5z"/>
</svg>
