<?xml version="1.0" encoding="utf-8"?>
<!-- Generator: Adobe Illustrator 18.1.1, SVG Export Plug-In . SVG Version: 6.00 Build 0)  -->
<svg version="1.1" id="Layer_1_copy" xmlns="http://www.w3.org/2000/svg" xmlns:xlink="http://www.w3.org/1999/xlink" x="0px"
	 y="0px" viewBox="202.6 51.7 60 60" enable-background="new 202.6 51.7 60 60" xml:space="preserve">
<polygon fill="#399222" points="258.1,82 257.6,83.9 258.1,86.1 257.1,87.7 257.5,90.2 256.1,91.3 256.3,93.8 254.5,94.6 
	254.1,97.5 252.5,97.6 251.8,99.6 250.2,100.3 249.4,102.8 247.5,102.7 246.2,105.1 244.5,104.7 242.8,107 241.2,106.2 239.2,107.9 
	237.8,107.2 235.8,108.2 234.1,107.7 231.9,108.8 230.4,107.7 228,108.2 226.7,107.1 224.4,107.3 223.2,106 220.8,106.3 
	219.9,104.5 216.8,104.2 216.8,102.5 214.2,101.6 214.3,100.1 212.1,99 212,97.4 209.9,96.1 210,94.3 207.9,92.6 208.5,91 206.5,89 
	207.4,87.4 205.8,84.9 207,83.6 205.8,81.2 207,79.8 206,77.1 207.5,76 206.8,73.2 208.5,72.5 207.9,70 210.1,69.2 210.8,66.3 
	212.2,66.2 213.1,64.3 214.5,63.7 215.5,62 217.2,61.3 218.2,59.2 220.1,59.2 221.5,56.5 223.5,57.5 226.1,55.3 227.1,56.5 
	229.5,55 230.7,56 233.2,54.6 234.5,56 237.7,55 238.2,56.7 240.8,56.5 241.6,57.8 244.4,57.4 244.9,59.4 247.3,60.1 247.7,61.4 
	249.7,62 250.4,63.8 252.6,64.7 252.7,66.5 254.3,68.1 254.5,69.6 255.8,71 256,72.8 257.5,74.5 257.1,76.4 258.2,78.6 257.6,80.1 
	"/>
<path fill="#399222" d="M254.1,72.1l4.6-1.6l-0.2-0.2l0.1,0l-1.6-3.6l2.3-2.2l-1.2-2.8L262,59l-0.5-1.8c-5.2,0.7-21.8,4.1-30.1,18
	c0.4,1.5,21.1-0.4,24.6-0.7l-0.2-0.1l0.5-0.1L254.1,72.1z"/>
<path fill="#399222" d="M203.9,56.3l-0.6,1.2l2.8,3.9l-0.8,3.5l2.4,2l-1.4,3.6l3.3,0.1l-0.8,3.4c0,0,18.6,1.8,24,1.2
	c0.3,0,0.5-0.1,0.7-0.1c0.4-0.1,0.7-0.2,0.7-0.4C231,66.2,212.1,59,203.9,56.3z"/>
<polygon fill="#6CC555" points="262.5,83.6 260.8,84.8 261.8,88.4 259.6,88.8 259.3,92 257.5,92.2 256.5,94.7 254.7,94.9 
	253.2,97.1 251.3,96.8 249.4,98.4 247.4,97.9 244.8,99.4 243.1,97.9 240.2,98.3 239.2,96.8 236.6,96.5 235.9,94.7 233.7,93.6 
	233.2,91.8 231.4,90.3 231.2,88.4 229.8,86.4 230.1,84.4 228.9,81.9 230.1,80.1 229.3,77.1 231.2,76.1 231.6,73.5 233.2,72.6 
	233.6,69.7 236,69.6 237.8,66.1 239.7,67.4 242.5,64.5 243.8,66.4 247.6,64.5 247.7,66.5 249.1,65.4 251.5,67.8 255.1,68.3 
	255.1,70 257.5,70.8 257.8,72.8 260.6,74.2 259.9,76.4 262.5,79.1 260.9,80.5 "/>
<polygon fill="#6CC555" points="238.1,84.1 236.3,85.3 237.3,89.1 235,89.5 234.7,92.9 232.8,93.1 231.7,95.8 229.8,95.9 
	228.2,98.2 226.2,98 224.2,99.7 222.1,99.1 219.3,100.7 217.6,99.1 214.5,99.5 213.5,97.9 210.7,97.6 210,95.7 207.7,94.6 
	207.1,92.7 205.2,91.1 205.1,89 203.5,87 203.9,84.8 202.6,82.3 203.8,80.3 203,77.1 205,76.1 205.4,73.4 207.1,72.4 207.5,69.4 
	210.1,69.2 211.9,65.5 213.9,67 216.9,63.9 218.3,65.9 222.3,63.9 222.4,66 223.9,64.8 226.4,67.4 230.2,67.9 230.2,69.7 
	232.8,70.5 233.1,72.6 236.1,74.1 235.3,76.5 238,79.3 236.3,80.8 "/>
<circle fill="#FFFFFF" cx="220.7" cy="80.8" r="12.2"/>
<circle fill="#FFFFFF" cx="244" cy="81.2" r="12.5"/>
<circle fill="#231F20" cx="223.8" cy="80.7" r="7.1"/>
<circle fill="#231F20" cx="240.5" cy="80.8" r="7"/>
<path fill="#B5E2AA" d="M232.5,88.4c-8.6,0-8.6,6.2-8.6,6.2l9.3,9.3l7.4-9.6C240.7,94.3,240.7,88.4,232.5,88.4z"/>
</svg>
